<?xml version="1.0" encoding="UTF-8"?>
<svg id="img" xmlns="http://www.w3.org/2000/svg" xmlns:xlink="http://www.w3.org/1999/xlink" viewBox="0 0 134.56 58.5">
  <defs>
    <style>
      .cls-1 {
        fill: none;
      }

      .cls-2 {
        clip-path: url(#clippath);
      }

      .cls-3 {
        fill: #fff;
      }

      .cls-4 {
        fill: #e30012;
      }
    </style>
    <clipPath id="clippath">
      <rect class="cls-1" width="134.56" height="58.5"/>
    </clipPath>
  </defs>
  <g>
    <rect class="cls-4" width="134.56" height="58.5"/>
    <g class="cls-2">
      <rect class="cls-4" width="134.56" height="58.5"/>
    </g>
  </g>
  <g>
    <path class="cls-3" d="m18.99,45.82v.49c0,.63,0,1.21-.05,1.76l1.44-.11-.02-2.24s-1.37.1-1.37.1Zm-3.23-1.14l1.66-.12-.02-1.75,1.56-.11.02,1.75,2.84-.2.04,3.61.88-.06.02,1.37-2.37.17c.25.69.53,1.25.84,1.69.47.62,1.02,1.09,1.67,1.4l-.91,1.63c-.84-.55-1.5-1.21-1.97-2-.43-.73-.81-1.6-1.13-2.62h-.1c-.12.72-.3,1.35-.54,1.89-.53,1.22-1.35,2.25-2.46,3.07l-.89-1.37c.92-.61,1.58-1.41,1.98-2.4.13-.32.24-.68.33-1.07l-2.01.15-.02-1.38,2.22-.16c.05-.53.06-1.12.06-1.75v-.49l-1.67.12-.02-1.37h0Zm-2.72-1.56l1.52-.11.03,2.6.74-.32c.37.7.65,1.36.85,1.99l-1.11.62c-.14-.56-.3-1.07-.47-1.54l.09,8.17-1.52.11-.13-11.52Zm-1.32,2.39l1.13.02c-.04,1.26-.11,2.35-.21,3.29l-1.27-.21c.19-1.02.31-2.06.35-3.1"/>
    <path class="cls-3" d="m49.59,46.74c-.06-.24-.13-.48-.21-.72-.2.32-.4.62-.6.89.27-.05.54-.11.81-.17m-2.64.44c.11,0,.22-.02.33-.04.42-.51.8-1.09,1.15-1.73-.46.17-.93.32-1.4.45l-.1-.63.02,1.95Zm-1.37-.05v-1.16l-.74.05v1.16l.74-.05Zm-.75-2.14l.72-.05v-1.07l-.74.05v1.07h.02Zm-2.24,1.23l.55-.18c.13.42.25.82.35,1.21l-.03-2.82c-.29.66-.57,1.26-.87,1.79m-.19.96c-.02-.16-.06-.31-.1-.47-.12.22-.25.42-.38.6.16-.04.32-.08.48-.13m2.1-5.31l1.46.09c-.06.27-.14.52-.22.75l1.16-.08.02,1.95c.06,0,.14,0,.21-.03.31-.74.55-1.68.73-2.83l1.41.29c-.3.98-.57,1.74-.84,2.29.19-.05.39-.11.6-.17.19-.46.37-.95.53-1.46l1.33.44c-.43.97-.86,1.83-1.31,2.56l.8-.27c.35.9.58,1.75.72,2.54l-1.22.43c-.02-.21-.05-.42-.1-.63-.89.28-1.79.53-2.69.74l-.15-.79v.45l-.88.07v.69l4.84-.35v1.22l-3.59.26c.33.22.7.4,1.11.55.79.29,1.75.48,2.86.58l-.86,1.53c-1.33-.29-2.38-.67-3.13-1.14-.44-.27-.83-.58-1.19-.93l.03,2.47-1.56.11-.03-2.42c-.41.43-.82.81-1.26,1.13-.92.62-1.9,1.13-2.96,1.5l-.69-1.41c1.43-.41,2.64-.97,3.62-1.67l-3.44.25v-1.23l4.72-.34v-.69l-.81.06s.02.1.03.15l-1.07.36c-.03-.22-.06-.46-.09-.69-.83.3-1.66.57-2.49.79l-.26-1.31c.21,0,.44-.04.67-.07.38-.52.74-1.11,1.05-1.76-.5.17-1,.32-1.5.46l-.26-1.31c.13,0,.27-.02.41-.04.36-.71.64-1.62.83-2.73l1.31.3c-.31.94-.61,1.67-.88,2.19,0,0,0,.02,0,.02.2-.05.42-.1.64-.16.15-.4.3-.81.42-1.25l.93.31v-.76l.88-.07c.08-.31.14-.62.18-.95"/>
    <polygon class="cls-3" points="65.83 42.35 75.4 41.67 75.41 43.12 71.4 43.41 71.47 49.71 76.2 49.37 76.22 50.85 65.2 51.64 65.18 50.17 69.82 49.83 69.75 43.53 65.85 43.82 65.83 42.35"/>
    <path class="cls-3" d="m95,39.75l1.75.17c-.14.52-.3,1.02-.48,1.5l4.46-.32.02,1.46-4.14.3.02,1.38,3.5-.25.02,1.46-3.5.25.02,1.56,3.71-.27.02,1.46-3.71.27.02,2.25-1.61.12-.08-6.99c-.38.64-.8,1.24-1.25,1.8l-.99-1.39c1.02-1.22,1.77-2.8,2.25-4.76m-3.17.23l1.61.28c-.23.87-.53,1.73-.9,2.55l.09,8.45-1.56.11-.06-5.77c-.38.57-.8,1.12-1.24,1.66l-.6-1.82c1.23-1.51,2.12-3.34,2.67-5.47"/>
    <path class="cls-3" d="m117.25,38.9l1.89-.14.03,2.89c.08,1.43.55,2.69,1.42,3.79.86,1.06,2.04,1.89,3.54,2.5l-1.11,1.79c-1.07-.52-2.04-1.18-2.89-1.97-.71-.66-1.34-1.6-1.9-2.82-.31,1.12-.76,2.04-1.35,2.78-.72.89-1.73,1.78-3.03,2.67l-1.17-1.33c1.45-.95,2.55-2.04,3.33-3.28.8-1.31,1.22-2.64,1.28-3.99l-.03-2.89h-.01Z"/>
  </g>
  <g>
    <path class="cls-3" d="m112.75,36.77c-.19-.47-.28-1.48-.28-3.04v-1.84h-7.5v1.4c0,1.7.14,3.09.43,4.19l7.66-.41c-.15-.09-.26-.19-.31-.3Z"/>
    <path class="cls-3" d="m51.86,40.33v-18.26c0-2.72-.12-4.6-.35-5.63-.23-1.03-.86-1.93-1.9-2.72s-2.3-1.18-3.78-1.18c-.97,0-1.87.18-2.71.53-.85.35-1.63.88-2.36,1.58v-7.98h-8.46v34.7l8.46-.45v-19.55c0-1.48.09-2.46.27-2.95.18-.5.53-.75,1.05-.75.56,0,.92.24,1.08.72s.24,1.57.24,3.26v19.12l8.46-.45h0Z"/>
    <path class="cls-3" d="m118.14,25.13c-1.84-.95-3.06-1.67-3.65-2.16-.59-.5-.95-.95-1.07-1.37s-.18-1.07-.18-1.96c0-.66.12-1.15.36-1.48s.59-.5,1.07-.5c.59,0,.95.18,1.1.54s.22,1.21.22,2.55v1.57h7.5v-1.68c0-1.46-.07-2.53-.22-3.22-.15-.69-.56-1.43-1.25-2.23-.7-.8-1.69-1.45-2.98-1.94-1.29-.49-2.86-.73-4.7-.73s-3.49.3-4.89.9c-1.4.6-2.4,1.45-2.98,2.55-.32.61-.56,1.39-.7,2.36v-5.81c-2.34.16-4.11,1.61-5.34,4.34l.34-3.82h-8.46v25.13l8.46-.45v-7.11c0-2.81.08-4.61.25-5.39.17-.78.61-1.39,1.34-1.83.71-.42,1.83-.64,3.34-.65.13.96.36,1.82.71,2.59.55,1.19,2.06,2.51,4.54,3.97,2.96,1.72,4.6,2.76,4.93,3.1.3.35.46,1.22.46,2.61,0,.93-.1,1.56-.31,1.9l7.92-.42c.13-.86.2-1.86.2-2.99,0-2.12-.38-3.73-1.15-4.84s-2.38-2.29-4.84-3.55l-.02.02Z"/>
    <path class="cls-3" d="m27.63,41.1c1.7-1.15,2.79-2.5,3.29-4.03s.74-4.13.74-7.8v-1.38h-8.82v4.45c0,1.95-.1,3.18-.3,3.71s-.63.79-1.29.79-1.13-.26-1.32-.79c-.2-.53-.29-1.65-.29-3.37v-16.45c0-1.79.1-2.96.29-3.5.19-.54.65-.81,1.38-.81.64,0,1.06.22,1.25.67.19.44.28,1.56.28,3.35v6.15h8.82v-3.37c0-3.3-.26-5.74-.79-7.31-.53-1.56-1.64-2.88-3.33-3.92-1.69-1.05-3.83-1.57-6.43-1.57-1.91,0-3.61.34-5.08,1.02s-2.62,1.61-3.45,2.79-1.33,2.41-1.5,3.69c-.17,1.28-.25,3.19-.25,5.74v10.35c0,3.47.27,6.07.82,7.8s1.66,3.08,3.33,4.06c.57.33,1.19.6,1.86.82l9.83-.52c.33-.17.66-.36.97-.56h-.01Z"/>
    <path class="cls-3" d="m69.98,39.33c.79-1.09,1.3-2.12,1.52-3.08.22-.96.33-2.34.33-4.14v-2.14h-8.03v3.83c0,1.45-.11,2.42-.32,2.92-.22.5-.65.75-1.29.75-.52,0-.87-.19-1.05-.57-.18-.38-.27-1.23-.27-2.54v-6.28h10.96v-3.85c0-2.82-.31-5-.94-6.55-.62-1.55-1.7-2.8-3.24-3.74-1.54-.94-3.5-1.41-5.88-1.41-1.94,0-3.66.39-5.15,1.17-1.49.78-2.57,1.9-3.23,3.37-.66,1.46-.98,3.47-.98,6.01v8.47c0,2.16.15,3.8.44,4.93.29,1.13.82,2.17,1.58,3.11.16.2.35.39.54.58l14.98-.8s.02-.02.03-.03h0Zm-9.11-18.1c0-1.63.07-2.64.21-3.01s.5-.56,1.09-.56c.48,0,.79.22.94.66.15.44.23,1.4.23,2.91v2.12h-2.47v-2.12Z"/>
    <path class="cls-3" d="m91.48,36.25c.22-.96.32-2.34.32-4.14v-2.14h-8.02v3.83c0,1.45-.11,2.42-.33,2.92s-.64.75-1.28.75c-.52,0-.87-.19-1.05-.57-.18-.38-.27-1.23-.27-2.54v-6.28h10.95v-3.85c0-2.82-.31-5-.93-6.55s-1.71-2.8-3.25-3.74-3.5-1.41-5.88-1.41c-1.94,0-3.66.39-5.15,1.17-1.49.78-2.57,1.9-3.22,3.37-.66,1.46-.99,3.47-.99,6.01v8.47c0,2.16.15,3.8.44,4.93.25.96.68,1.85,1.26,2.67l16.56-.88c.4-.7.69-1.38.84-2.02h0Zm-10.63-15.01c0-1.63.07-2.64.21-3.01s.5-.56,1.09-.56c.47,0,.79.22.94.66.15.44.23,1.4.23,2.91v2.12h-2.47v-2.12Z"/>
  </g>
</svg>