<?xml version="1.0" encoding="UTF-8"?>
<svg id="img" xmlns="http://www.w3.org/2000/svg" viewBox="0 0 159.07 58.5">
  <defs>
    <style>
      .cls-1 {
        fill: #fff;
      }

      .cls-2 {
        fill: #fe0;
      }

      .cls-3 {
        fill: #009b93;
      }
    </style>
  </defs>
  <rect class="cls-3" width="159.07" height="58.5"/>
  <path class="cls-1" d="m38.57,8.88c.85,2.46-2.58,3.26-4.16,3.91-.55.22-1.09.45-1.63.7-.37.17-.71.41-1.08.56s-.75.19-1.12.28c-.85.19-1.69.4-2.52.62-1.68.45-3.34.96-5.01,1.44-.95.27-1.91.54-2.87.77-1.02.25-2.05-.02-2.93-.54-.82-.48-.87-1.25-1.25-2.04-.19-.4-.16-.83.21-1.15.1-.08.52-.06.65-.08.22-.03.44-.06.66-.1.43-.07.86-.15,1.3-.21s.87-.12,1.3-.15c.48-.03.88.08,1.3-.2.45-.3.88-.59,1.37-.82.95-.43,1.97-.66,2.99-.82.36-.06.72-.1,1.08-.15.19-.02.39.01.58-.04.22-.06.28-.18.45-.32.37-.28.87-.29,1.23-.57,1.04-.83,2.42-1.14,3.25-2.18.6-.49,1.36-.7,2.12-.74.8-.04,1.62-.1,2.34.3.67.37,1.5.72,1.76,1.51"/>
  <path class="cls-1" d="m66.89,21.64c.11-.39.2-.8.2-1.22s-.25-.79-.28-1.21c-.02-.34.16-.7-.23-.89-.83-.59-1.59.35-2.42.48-.68.34-1.19.93-1.76,1.41-.4.34-.9.52-1.32.82s-.73.67-1.12.97c-.85.64-1.85,1.05-2.74,1.64-.75.5-2.44.3-3.26.14-1.5-.29-2.81-1.03-4.2-1.59-.61-.25-1.25-.44-1.8-.79-.64-.41-.99-1.13-1.63-1.56-.58-.38-1.15-.72-.98-1.52.52-.55,1.24-.66,1.93-.83,2.38-.45,4.97-.1,7.29-.9,1.31-.34,2.69-.66,3.97-1.1.34-.12.69-.29,1.05-.41.39-.13.63-.42.99-.6.79-.4,1.63-.16,2.43-.38,1.13-.31,2.24-.65,3.35-1.01.65-.21,1.28-.48,1.94-.63.53-.12,1.08-.11,1.54-.41,1.14-.73,2.58-.41,3.78-.94,1.02-.45,2.17-.9,3.25-1.17.56-.14,1.15-.21,1.73-.13.98.13,1.99.37,2.96.58.82.17,1.67.3,2.4.73.4.23.73.58.93,1,.06.54-.13,1.05-.36,1.53-.12.24-.25.47-.38.71-.41.75-1.09.93-1.87,1.14-.78.21-1.6.29-2.4.1-.42-.1-.86-.31-1.2-.58-1.37-.88-3.05-.63-4.54-.25-.21.05-.41.11-.61.18-.22.07-.42.11-.6.25-.17.14-.35.25-.54.35-.5.27-.93.5-.93,1.11,0,.73-.12,1.57.17,2.25.66,1.38-.21,2.76.41,4.14.28,1.87.83,4.49.76,6.63,0,2.97.24,6.67.73,9.53.11.66.32,1.31.47,1.96.1.41.12.83.22,1.24.21.88.41,1.52.38,2.43-.04,1.04-.17,2.08-.32,3.12-.16,1.14-.52,2.25-1.65,2.76-1.11,1.22-3.08.99-4.49.52-.61-.2-1.36-1.07-1.67-1.62-.19-.33-.16-.74-.25-1.11-.22-.95-.61-1.85-.29-2.84.69-7.94,1.38-15.47.97-23.38"/>
  <path class="cls-1" d="m28.28,18.27c.69.76,1,1.66,1.42,2.56.36.39.8.37,1.26.2.4-.15.83-.21,1.17-.49s.61-.63.94-.92c.7-.62,1.44-1.2,2.34-1.5.53-.17,1.09-.25,1.65-.19.9.35,2.04.31,2.49,1.24.41.59.31,1.28.1,1.9-.79,1.62-2.76,2.21-4.14,3.25-1.11.59-2.59,1-3.14,2.24-.03,1.97,1.55,3.56,2.8,4.7,1.9,1.97,3.66,4.97,6.22,6.15.75.35,1.38,1.06,2.02,1.57.35.28.7.56,1.09.78.43.25.91.34,1.33.63s.96.42,1.3.81c.13.16.36.19.54.29.37.2.62.6,1.06.69.24.05.45,0,.68.1.22.1.43.29.64.43.96.63,1.95,1.23,3.03,1.62.42.15.87.18,1.29.33s.66.47,1,.71c.59.41,1.38.78,1.67,1.49.18.46-.06,1.16-.36,1.53-.43.52-1.21.65-1.83.75-.63.1-1.29.39-1.92.46-.35.04-.71.03-1.06.06-.76.06-1.51.13-2.27.21-1.53.16-3.06.31-4.6.29-.84-.02-1.82.11-2.58-.32-1.04-.6-1.98-1.49-2.93-2.22-1.25-.95-2.1-2.27-2.99-3.56-.93-1.34-1.83-2.72-2.77-4.06-.76-1.08-1.52-2.33-2.55-3.17-.36-.3-.61-.72-.97-1.03-.31-.27-.59-.56-.87-.87-.56-.62-1.15-1.19-2.02-1.26-.33.49-.55,1.04-.68,1.62-.09.39-.07.79-.14,1.18-.06.33-.18.64-.24.97-.13.71-.14,1.47-.5,2.11-.22.39-.34.7-.44,1.14-.1.43-.31.89-.49,1.3-.1.23-.25.43-.35.66-.19.42-.29.86-.51,1.27-.24.46-.51.91-.8,1.34-.58.87-1.25,1.68-1.97,2.43-.41.42-.83.83-1.27,1.21-.34.3-.64.64-1.04.88s-.87.33-1.31.47c-.95.3-1.81.72-2.82.77-.6.03-1.19-.14-1.71-.43-.22-.12-.62-.1-.87-.2-.3-.11-.59-.27-.85-.46-.29-.22-.58-.45-.8-.75-.12-.16-.22-.34-.25-.54-.06-.42.02-.56-.25-.91-.34-.46-.16-.76-.26-1.25-.05-.24-.16-.46-.18-.7-.03-.4.3-.71.52-1,.24-.32.45-.68.86-.81.46-.16,1.12-.14,1.59-.04.27.05.53.15.76.3.38.23.55.59,1.03.31.36-.21.57-.59.88-.86.24-.2.33-.54.56-.76.26-.25.5-.52.72-.81.45-.59.79-1.26,1.03-1.96,1.24-1.31,1.38-3.18.9-4.97-1.28-.1-2.62.55-3.97.1-.9-.66-2.21-1-2.66-2-.62-.66-1.14-1.48-1.24-2.42.38-1.04,1.83-.73,2.66-.9.76-.31,1.66-.38,2.42-.76.43-.21.93-.28,1.37-.52.43-.23.84-.51,1.24-.78.41-.27.82-.53,1.27-.74.48-.22,1-.28,1.47-.54.4-.22.77-.52,1.12-.81.72-.6,1.28-1.45,1.16-2.42-.04-.33-.2-.63-.2-.99s.07-.7.14-1.05.16-.69.2-1.05c.06-.53-.08-.88.24-1.36.28-.42.7-.76,1.17-.95.38-.15.85-.07,1.25-.07.32,0,.73-.22,1.04-.13.19.05.32.22.53.28.23.06.47.05.66.2"/>
  <path class="cls-1" d="m99.85,35.5l-.11.02c-.09-.29-.26-.51-.52-.67-.26-.16-.58-.24-.96-.24-.58,0-1.03.2-1.36.61-.32.41-.48.98-.48,1.71,0,.79.16,1.4.49,1.82.33.42.81.62,1.44.62.27,0,.54-.05.82-.16.27-.11.52-.25.75-.44l.1.02-.19.68c-.26.13-.53.22-.81.28-.28.06-.58.09-.88.09-.94,0-1.68-.25-2.2-.76-.53-.51-.79-1.22-.79-2.12s.28-1.55.85-2.07,1.32-.78,2.27-.78c.3,0,.6.03.89.1.3.07.6.17.9.3-.05.15-.09.3-.12.46-.04.16-.06.33-.08.51v.02Z"/>
  <path class="cls-1" d="m100.41,37.81c0-.64.18-1.14.54-1.5s.85-.54,1.49-.54,1.14.18,1.49.53.52.86.52,1.51-.18,1.14-.53,1.49c-.36.36-.85.53-1.49.53s-1.14-.18-1.49-.53-.53-.85-.53-1.49Zm1.19,0c0,.61.06,1.04.19,1.29.13.25.34.37.64.37s.52-.13.65-.38c.13-.25.19-.68.19-1.29s-.06-1.04-.19-1.3c-.13-.25-.34-.38-.65-.38s-.51.13-.64.38-.19.69-.19,1.3h0Z"/>
  <path class="cls-1" d="m105.17,39.74c.02-.43.03-.81.04-1.13,0-.32.01-.59.01-.8s0-.47-.01-.79c0-.32-.02-.7-.04-1.13.09,0,.18.02.27.02h.6c.09,0,.18,0,.26-.02v.53c.17-.22.34-.37.53-.47.19-.1.41-.15.65-.15.27,0,.5.06.69.19.19.13.33.31.43.56.16-.25.34-.44.55-.57.21-.12.45-.18.73-.18.19,0,.37.03.53.1.16.06.29.16.4.29s.19.29.23.49.07.57.07,1.1v1.2c0,.24.02.5.03.77-.12,0-.23-.02-.32-.03h-.57c-.1,0-.2.02-.31.03.02-.35.04-.68.05-.98s.02-.58.02-.84c0-.6-.05-1-.14-1.18-.09-.19-.26-.28-.5-.28s-.41.09-.51.28c-.1.18-.15.51-.15.99v1.28c0,.12,0,.34.03.65v.08c-.11,0-.22-.02-.32-.03h-.29c-.1,0-.19,0-.28,0-.1,0-.2.02-.32.03.02-.3.04-.59.05-.88,0-.28.02-.55.02-.8,0-.71-.05-1.15-.14-1.33s-.26-.27-.5-.27-.4.09-.5.28c-.1.18-.15.51-.15.99v1.28c0,.13,0,.35.03.66v.07c-.1,0-.2-.02-.29-.03h-.56c-.09,0-.2.02-.32.03v-.02Z"/>
  <path class="cls-1" d="m112.17,39.74c.02-.43.03-.81.04-1.13,0-.32.01-.59.01-.8s0-.47-.01-.79c0-.32-.02-.7-.04-1.13.09,0,.18.02.27.02h.6c.09,0,.18,0,.26-.02v.53c.17-.22.34-.37.53-.47.19-.1.41-.15.65-.15.27,0,.5.06.69.19.19.13.33.31.43.56.16-.25.34-.44.55-.57.21-.12.45-.18.73-.18.19,0,.37.03.53.1.16.06.29.16.4.29s.19.29.23.49.07.57.07,1.1v1.2c0,.24.02.5.03.77-.12,0-.23-.02-.32-.03h-.57c-.1,0-.2.02-.31.03.02-.35.04-.68.05-.98s.02-.58.02-.84c0-.6-.05-1-.14-1.18-.09-.19-.26-.28-.5-.28s-.41.09-.51.28c-.1.18-.15.51-.15.99v1.28c0,.12,0,.34.03.65v.08c-.11,0-.22-.02-.32-.03h-.29c-.1,0-.19,0-.28,0-.1,0-.2.02-.32.03.02-.3.04-.59.05-.88,0-.28.02-.55.02-.8,0-.71-.05-1.15-.14-1.33s-.26-.27-.5-.27-.4.09-.5.28c-.1.18-.15.51-.15.99v1.28c0,.13,0,.35.03.66v.07c-.1,0-.2-.02-.29-.03h-.56c-.09,0-.2.02-.32.03v-.02Z"/>
  <path class="cls-1" d="m118.9,37.81c0-.64.18-1.14.54-1.5s.85-.54,1.49-.54,1.14.18,1.49.53.52.86.52,1.51-.18,1.14-.53,1.49c-.36.36-.85.53-1.49.53s-1.14-.18-1.49-.53-.53-.85-.53-1.49Zm1.19,0c0,.61.06,1.04.19,1.29.13.25.34.37.64.37s.52-.13.65-.38c.13-.25.19-.68.19-1.29s-.06-1.04-.19-1.3c-.13-.25-.34-.38-.65-.38s-.51.13-.64.38-.19.69-.19,1.3h0Z"/>
  <path class="cls-1" d="m123.66,39.74c.02-.36.04-.69.05-1.01s.02-.62.02-.91c0-.33,0-.65-.02-.98-.01-.32-.03-.64-.05-.96.08,0,.17.02.26.02h.58c.09,0,.17,0,.25-.02v.56c.16-.22.35-.38.56-.49.2-.11.43-.16.69-.16.2,0,.38.03.54.1s.3.17.41.29c.09.11.15.23.19.39.04.15.06.42.06.79v1.01c0,.25,0,.49.01.71,0,.22.02.44.04.65-.11,0-.22-.02-.32-.03h-.57c-.1,0-.2.02-.31.03.02-.23.03-.5.05-.82.01-.32.02-.67.02-1.06,0-.59-.05-.96-.14-1.13-.09-.17-.26-.25-.51-.25s-.42.1-.53.3-.16.54-.16,1.02c0,.23,0,.5.01.82,0,.32.02.7.03,1.12-.1,0-.2-.02-.3-.03h-.56c-.1,0-.2.02-.31.03h0Z"/>
  <path class="cls-1" d="m129.44,39.74c-.23-.89-.49-1.79-.77-2.71s-.58-1.85-.91-2.81c.1,0,.21.02.32.02h.72c.11,0,.22,0,.32-.02.16.68.32,1.35.5,2.02.18.67.37,1.34.58,2.01.25-.73.5-1.43.72-2.09.23-.66.44-1.31.65-1.94.06,0,.13.02.19.02h.43c.07,0,.13,0,.2-.02.19.64.39,1.29.61,1.95s.45,1.34.69,2.02c.23-.65.44-1.3.63-1.96.2-.66.38-1.33.55-2.01.06,0,.11.02.17.02h.4c.06,0,.12,0,.17-.02-.29.82-.58,1.68-.89,2.6-.3.92-.62,1.89-.94,2.91-.07,0-.15-.02-.22-.03h-.39c-.07,0-.14.02-.22.03-.19-.62-.39-1.26-.6-1.91-.22-.65-.45-1.32-.7-2-.24.61-.48,1.25-.71,1.9-.23.65-.46,1.32-.68,2.01-.07,0-.14-.02-.21-.03h-.4c-.07,0-.14.02-.21.03h0Z"/>
  <path class="cls-1" d="m136.96,37.82c0,.47.11.83.33,1.11.22.27.52.41.9.41.19,0,.37-.03.54-.09s.34-.16.5-.29l.08.06-.18.46c-.17.12-.37.21-.59.27-.23.06-.47.09-.74.09-.63,0-1.12-.19-1.48-.56-.36-.37-.53-.88-.53-1.54,0-.59.18-1.06.53-1.43.35-.36.82-.54,1.41-.54.55,0,.98.15,1.27.46.3.31.44.75.44,1.32v.26h-2.48Zm0-.38h1.37v-.19c0-.37-.05-.64-.16-.83-.11-.19-.26-.28-.47-.28-.24,0-.42.11-.55.32s-.2.52-.2.91v.07h.01Z"/>
  <path class="cls-1" d="m142.11,39.23c-.12.19-.27.34-.46.45s-.4.16-.64.16c-.34,0-.61-.1-.8-.3s-.29-.47-.29-.82c0-.25.07-.47.2-.63.14-.17.35-.3.64-.39.09-.03.23-.07.41-.13.42-.13.71-.24.86-.35v-.13c0-.24-.07-.44-.21-.58-.14-.14-.32-.22-.56-.22-.18,0-.35.05-.49.15-.15.1-.29.26-.41.47-.04-.13-.07-.23-.1-.3-.03-.08-.05-.15-.08-.21.24-.21.48-.36.71-.46.23-.1.48-.15.73-.15.48,0,.85.11,1.11.33s.39.54.39.96v.04l-.02,1.41v.15c0,.33.04.54.11.63s.21.14.42.14h.02v.2c-.14.06-.28.1-.43.13-.15.03-.29.05-.42.05-.2,0-.35-.05-.48-.15-.12-.1-.21-.24-.25-.43l.04-.02Zm-.04-1.62c-.37.08-.64.19-.81.35-.16.15-.25.37-.25.65,0,.23.04.4.13.52.08.12.21.17.37.17.18,0,.32-.06.41-.19.1-.13.14-.31.14-.56v-.94h0Z"/>
  <path class="cls-1" d="m144.23,39.74c.02-.45.04-.93.05-1.42,0-.49.02-1.02.02-1.59,0-.6,0-1.15-.02-1.64,0-.5-.03-.96-.05-1.4.13.02.24.04.33.04s.18,0,.27,0,.18,0,.27,0c.1,0,.21-.02.33-.04-.02.45-.04.93-.05,1.42,0,.49-.02,1.02-.02,1.59,0,.6,0,1.15.02,1.64,0,.5.03.96.05,1.4-.09-.02-.18-.03-.28-.04-.1,0-.2,0-.31,0s-.21,0-.31,0c-.1,0-.2.02-.3.04h0Z"/>
  <path class="cls-1" d="m146.54,36.33h-.55v-.42h.05c.19.02.33.03.41.03h.09v-.64c0-.12,0-.27-.02-.44.19-.07.37-.15.55-.22.18-.08.36-.16.53-.24l.09.07c-.02.31-.03.56-.03.77s0,.36,0,.47v.25h.41c.13,0,.25,0,.37-.02,0,.06,0,.1,0,.13v.08s0,.11,0,.19v.02h-.8v.19c-.02.56-.03.95-.03,1.19v.32c0,.62.03,1,.09,1.15s.18.22.35.22c.09,0,.24-.03.47-.09h0v.3c-.18.08-.34.14-.49.17-.15.04-.3.06-.44.06-.34,0-.61-.09-.79-.27s-.27-.45-.27-.8c0,0,0-.24,0-.69,0-.45,0-.89,0-1.32v-.46Z"/>
  <path class="cls-1" d="m149.01,39.74c.02-.28.04-.64.05-1.05,0-.42,0-1.03,0-1.82,0-.84,0-1.5,0-1.97,0-.47-.03-.88-.05-1.21.11.02.21.04.31.05.1,0,.19.02.28.02s.19,0,.29-.02c.1,0,.2-.03.3-.05-.03.22-.05.46-.06.71s-.02.52-.02.82v1.25c.15-.22.32-.39.53-.5.21-.11.44-.17.71-.17.19,0,.37.03.53.1s.3.17.41.29c.09.11.16.24.2.4s.06.42.06.78v1.01c0,.3,0,.55,0,.77,0,.21.02.41.04.6-.11,0-.22-.02-.32-.03h-.56c-.1,0-.2.02-.31.03.02-.23.03-.5.04-.82s.02-.67.02-1.06c0-.59-.05-.96-.14-1.13-.09-.17-.26-.25-.5-.25s-.42.1-.53.3-.16.54-.16,1.02c0,.25,0,.54,0,.87,0,.33.02.68.04,1.07-.11,0-.21-.02-.3-.03h-.56c-.1,0-.2.02-.31.03h0Z"/>
  <path class="cls-1" d="m89.3,28.47c-.41-.46-.85-.74-1.08-.87-.06-.02-.11-.05-.17-.08h0c-.26-.15-.51-.35-.8-.43-.44-.11-.91-.06-1.35-.15-.62-.13-1.24-.29-1.87-.38-.78-.12-1.6-.15-2.37.08-.35.1-.76.24-1.01.51-.21.23-.2.5-.27.78-.06.27-.1.54-.1.81,0,1.02.38,2.02.89,2.89.27.46.59.9.93,1.31.32.37.7.87,1.11,1.14.4.27.68.46.94.88.18.29.2.38.54.51.56.21,1.19.21,1.77.25.77.06,1.6.07,2.36-.07.58-.1.69-.51,1.16-.78.44-.26.66-.3.87-.78.91-2.18-.21-4.04-1.55-5.61h0Z"/>
  <g>
    <path class="cls-1" d="m110.83,24.43h-6.76v2.14c0,1.68-1.47,2.64-4.77.71l.17-.63c2.7.6,2.92.32,2.92-.78v-1.43h-7.56v-.84h7.56v-1.34l1.25.19c.69-.39,1.38-.93,1.92-1.4h-7.88v-.84h8.31l.5-.22,1.51,1.21c-1.19.84-2.79,1.49-3.93,1.83v.58h6.76v.84-.02Zm-14.21-2.66h-1.64v-3.32h1.64c-.06-2.12-.13-4.27-.24-6.39l1.47.32c.71-.32,1.29-.75,2.03-1.45l.97,1.04c-.73.37-1.92.84-2.96,1.01,0,.34.02.67.04,1.01h2.48v.84h-2.44c.02.48.02.99.04,1.47h2.53v.84h-2.51c.02.45.04.88.04,1.32h2.76l-.22-.48c.63-.35,1.19-.78,1.66-1.29-.37-.32-.76-.61-1.19-.91l.28-.52c.54.24,1.04.47,1.53.73.32-.39.6-.82.86-1.27l1.15.82c-.28.34-.61.69-1.01,1.06.41.28.8.58,1.19.93l-.86.93h3.33c.04-.43.06-.84.07-1.27h-2.53v-.84h2.57c.02-.45.06-.91.07-1.36h-2.51v-.84h2.53l.06-1.43h-2.72v-.84h2.57l.35-.35,1.36.34c-.13,2.16-.24,4.41-.41,6.59h1.69v3.26h-1.64v-2.42h-12.39v2.48h0Zm5.66-8.88c-.39-.39-.8-.76-1.17-1.06l.28-.54c.47.22.95.52,1.45.84.24-.39.47-.78.65-1.15l1.25.69c-.24.37-.56.76-.93,1.15.39.3.75.6,1.1.91l-.99,1.01c-.24-.32-.56-.73-.93-1.12-.61.52-1.28.99-1.92,1.32l-.34-.47c.58-.47,1.1-1.01,1.55-1.58Zm-1.17,5.55h2.87c-.32-.39-.65-.76-.99-1.1-.58.45-1.21.84-1.88,1.1Z"/>
    <path class="cls-1" d="m121.17,16.68c-1.66,1.15-4,2.37-5.2,2.83l-.74-1.58c1.71-.47,3.95-1.15,5.94-2.03v-3.19h-5.77v-.84h7.38v7.12h-1.6v-2.31h-.01Zm-1.3-2.24l-.91,1.49c-.73-.65-2.07-1.55-2.96-2.12l.24-.61c.95.19,2.37.6,3.63,1.25h0Zm3.69,6.6h5.81v7.3h-1.68v-1.01h-8.55v1.08h-1.68v-7.38h5.08c.34-.82.56-1.6.71-2.38l1.81.71c-.56.69-1.02,1.23-1.51,1.68h.01Zm4.14.84h-8.55v1.83h8.55v-1.83Zm0,2.66h-8.55v1.96h8.55v-1.96Zm2.76-12.68v7.54h-1.6v-3.58c-1.6,1.15-3.69,2.4-4.92,2.87l-.8-1.62c1.62-.37,3.73-1.04,5.72-1.99v-2.38h-5.33v-.84h6.93Zm-2.96,2.53l-.89,1.43c-.71-.61-2.09-1.6-2.94-2.1l.24-.6c.88.17,2.4.6,3.59,1.27Z"/>
  </g>
  <g>
    <path class="cls-2" d="m95.65,49.92v-5.75h1.2v4.8h1.8v.96h-3Z"/>
    <path class="cls-2" d="m102.53,49.92v-5.75h3.14v.88h-1.94v1.42h1.78v.88h-1.78v1.68h2v.88h-3.2Z"/>
    <path class="cls-2" d="m109.42,49.92l1.59-5.75h1.59l1.56,5.75h-1.27l-.32-1.28h-1.64l-.33,1.28h-1.19.01Zm2.32-4.65h-.02l-.55,2.49h1.15l-.58-2.49Z"/>
    <path class="cls-2" d="m119.25,49.92h-1.2v-5.75h2.22c.82,0,1.35.53,1.35,1.51,0,.73-.29,1.28-1.07,1.41v.02c.26.03,1.04.1,1.04,1.13,0,.37.02,1.45.14,1.69h-1.18c-.16-.35-.13-.74-.13-1.12,0-.69.06-1.27-.86-1.27h-.31s0,2.38,0,2.38Zm0-3.27h.53c.48,0,.61-.48.61-.84,0-.55-.23-.76-.61-.76h-.53v1.6Z"/>
    <path class="cls-2" d="m125.86,49.92v-5.75h1.63l1.53,3.98h.02v-3.98h1.12v5.75h-1.59l-1.57-4.21h-.02v4.21h-1.12Z"/>
    <path class="cls-2" d="m134.51,49.92v-5.75h1.2v5.75h-1.2Z"/>
    <path class="cls-2" d="m140.08,49.92v-5.75h1.63l1.53,3.98h.02v-3.98h1.12v5.75h-1.59l-1.57-4.21h-.02v4.21h-1.12Z"/>
    <path class="cls-2" d="m151.37,45.93c0-.53-.08-1-.72-1-.75,0-.75,1.01-.75,2.13,0,1.8.18,2.12.86,2.12.2,0,.41-.05.6-.11v-1.28h-.65v-.88h1.86v2.92c-.33.06-1.15.19-1.63.19-2.02,0-2.26-.84-2.26-3.02,0-1.45.07-2.92,2.04-2.92,1.18,0,1.91.66,1.84,1.86h-1.2,0Z"/>
  </g>
</svg>