<?xml version="1.0" encoding="UTF-8"?>
<svg id="img" xmlns="http://www.w3.org/2000/svg" viewBox="0 0 1366 900">
  <defs>
    <style>
      .cls-1, .cls-2, .cls-3 {
        fill: none;
        stroke: #fff;
        stroke-miterlimit: 10;
      }

      .cls-4 {
        opacity: .7;
      }

      .cls-2 {
        opacity: .6;
      }

      .cls-5 {
        fill: #fff;
        opacity: .75;
      }

      .cls-3 {
        opacity: .62;
      }
    </style>
  </defs>
  <path class="cls-3" d="m503.67,805.46c67.46,3.84,131.33-11.5,185.74-41.05,37.24-20.23,83.79-17.67,118.65,6.46,33.01,22.85,72.97,37.4,116.6,40.16,123.09,7.8,229.16-81.55,235.39-198.32,2.49-46.67-11.25-90.67-36.54-127.03-15.53-22.33-22.46-49.1-19.3-75.59.1-.83.19-1.65.28-2.48,17.58-160.18-115.37-301.13-285.29-302.5-53.34-.43-103.64,13.1-146.8,37.14-39.13,21.79-84.38,31.55-129.78,28.61-.94-.06-1.88-.12-2.82-.17-184.9-10.52-342.87,123.05-352.84,298.34-9.97,175.29,131.83,325.92,316.73,336.44Z"/>
  <path class="cls-2" d="m1040.5,824.96s87.72-155.4,164.71-237.52c76.99-82.12,137.58-98.58,137.58-98.58,0,0-37.17,36-69.76,88.68-32.59,52.67-54.73,111.83-95.56,160.69-61.77,73.93-136.97,86.73-136.97,86.73Z"/>
  <path class="cls-2" d="m1085.65,814.94s71.69-92.21,129.41-138c57.72-45.79,98.53-50.64,98.53-50.64,0,0-27.52,19.75-53.66,50.73-26.15,30.98-46.16,67.16-77.28,94.88-47.08,41.94-97,43.02-97,43.02Z"/>
  <g class="cls-4">
    <path class="cls-1" d="m88.5,209.88l131.15,34.39c7.68,2.01,14.72,5.97,20.43,11.49l61.65,59.62,31.37-32.44-61.65-59.62c-5.71-5.52-9.9-12.42-12.17-20.03l-38.77-129.92c-2.55-8.53-13.33-11.16-19.52-4.76l-117.89,121.92c-6.19,6.4-3.2,17.09,5.42,19.35Z"/>
    <path class="cls-5" d="m165.55,230.08l77.72-80.38-22.78-76.34c-2.55-8.53-13.33-11.16-19.52-4.76l-117.89,121.92c-6.19,6.4-3.2,17.09,5.42,19.35l77.06,20.21Z"/>
    <rect class="cls-5" x="287.3" y="284.1" width="53.29" height="23.42" rx="4.18" ry="4.18" transform="translate(-116.94 315.87) rotate(-45.96)"/>
  </g>
</svg>