<?xml version="1.0" encoding="utf-8"?>
<!-- Generator: Adobe Illustrator 27.0.0, SVG Export Plug-In . SVG Version: 6.00 Build 0)  -->
<svg version="1.1" id="圖層_1" xmlns="http://www.w3.org/2000/svg" xmlns:xlink="http://www.w3.org/1999/xlink" x="0px" y="0px"
	 viewBox="0 0 385.5 450.7" style="enable-background:new 0 0 385.5 450.7;" xml:space="preserve">
<style type="text/css">
	.st0{fill:#A1B6E8;}
</style>
<g id="icomoon-ignore">
</g>
<path class="st0" d="M249.5,299c0,16.5-1.8,33-4.2,49.2c-3.8,26-7.5,52.8-13.8,78.2c-4.5,18.2-21.5,22.5-38,22.5s-33.5-4.2-38-22.5
	c-6.2-25.5-10-52.2-13.8-78.2c-2.5-16.2-4.2-32.8-4.2-49.2c0-33.8,27.2-42,56-42S249.5,265.3,249.5,299z M385,193
	c0,81-50,150.2-121,178.5c-2.8,1-5.8-1.5-5.2-4.5c0.8-5.2,1.5-10.8,2.5-16.5c0.5-4,1-8,1.5-11.8c0.2-1.5,1-2.5,2.2-3
	c52-26.5,88-80.5,88-142.7c0-91.3-76.5-164.8-168.7-159.8C99.8,37.8,32.5,109.8,33,194.3c0.5,62.2,36.8,116,89,142
	c1.2,0.5,2,1.8,2.2,3c0.5,3.5,1,7.2,1.5,11.2c1,6,1.8,11.5,2.8,17c0.5,3-2.8,5.5-5.5,4.2c-74.2-29-126-103-121.8-188.2
	C6,86.8,84,7.5,180.8,1.5C292.3-5.5,385,83,385,193z M249.5,185c0,31-25,56-56,56s-56-25-56-56s25-56,56-56S249.5,154,249.5,185z
	 M321.5,193c0,41.2-19.8,78.2-50,101.5c-2.5,2-6,0.2-6.5-3c-0.8-7-2.8-15.2-7.2-23c-1-1.5-0.8-3.5,0.8-5c19-17.5,31-42.5,31-70.5
	c0-56.5-49.2-101.8-107-95.5c-44.2,5-80.3,41.5-84.5,86c-3.2,31.5,9.2,60.5,30.5,80c1.5,1.5,1.8,3.5,0.8,5c-4.5,7.8-6.5,16-7.3,23.2
	c-0.5,3-4,4.8-6.5,2.8c-31-24-50.8-61.7-50-104.2c1.5-66.5,55.5-122,121.8-125C260.8,61.8,321.5,120.3,321.5,193z"/>
</svg>
