<?xml version="1.0" encoding="UTF-8"?><svg xmlns="http://www.w3.org/2000/svg" xmlns:xlink="http://www.w3.org/1999/xlink" viewBox="0 0 1366 768"><defs><style>.cls-1,.cls-2,.cls-3,.cls-4,.cls-5,.cls-6,.cls-7{fill:none;stroke:#fff;}.cls-1,.cls-3,.cls-4,.cls-6{stroke-linecap:round;stroke-linejoin:round;}.cls-2{stroke-width:3px;}.cls-2,.cls-5,.cls-7{stroke-miterlimit:10;}.cls-3,.cls-5{stroke-width:.75px;}.cls-8{fill:#fff;}.cls-4{stroke-width:5px;}.cls-9{fill:url(#_未命名漸層_9);}.cls-6{stroke-width:2px;}.cls-10{fill:url(#_未命名漸層_298);filter:url(#drop-shadow-1);}</style><linearGradient id="_未命名漸層_9" x1="684.03" y1="750.69" x2="684.03" y2="37.66" gradientUnits="userSpaceOnUse"><stop offset=".17" stop-color="#fde360"/><stop offset=".61" stop-color="#f7f8e4"/><stop offset=".9" stop-color="#fbe988"/></linearGradient><linearGradient id="_未命名漸層_298" x1="1047.93" y1="-101.38" x2="1484.61" y2="330.21" gradientUnits="userSpaceOnUse"><stop offset=".03" stop-color="#cae8cb"/><stop offset=".25" stop-color="#ffedb3"/><stop offset=".58" stop-color="#ffdb30"/><stop offset=".87" stop-color="#cfaa30"/></linearGradient><filter id="drop-shadow-1" filterUnits="userSpaceOnUse"><feOffset dx="8.5" dy="2.83"/><feGaussianBlur result="blur" stdDeviation="8.5"/><feFlood flood-color="#000" flood-opacity=".25"/><feComposite in2="blur" operator="in"/><feComposite in="SourceGraphic"/></filter></defs><g id="bg"><rect class="cls-9" x="-3.77" y="-3.58" width="1375.62" height="776.41"/></g><g id="img"><g><g><polygon class="cls-7" points="302.34 128.99 270.02 128.99 253.87 156.97 270.02 184.96 302.34 184.96 318.49 156.97 302.34 128.99"/><polygon class="cls-7" points="302.34 184.96 270.02 184.96 253.87 212.94 270.02 240.92 302.34 240.92 318.49 212.94 302.34 184.96"/><polygon class="cls-7" points="350.74 156.97 318.43 156.97 302.28 184.96 318.43 212.94 350.74 212.94 366.9 184.96 350.74 156.97"/></g><g><circle class="cls-8" cx="270.59" cy="128.99" r="4.74"/><circle class="cls-8" cx="302.28" cy="128.99" r="4.74"/><circle class="cls-8" cx="270.59" cy="240.92" r="4.74"/><circle class="cls-8" cx="302.28" cy="240.92" r="4.74"/><circle class="cls-8" cx="302.28" cy="184.96" r="4.74"/><circle class="cls-8" cx="270.59" cy="184.96" r="4.74"/><circle class="cls-8" cx="366.9" cy="184.96" r="4.74"/><circle class="cls-8" cx="351.06" cy="156.97" r="4.74"/><circle class="cls-8" cx="351.06" cy="212.94" r="4.74"/><circle class="cls-8" cx="318.49" cy="212.94" r="4.74"/><circle class="cls-8" cx="253.87" cy="156.97" r="4.74"/><circle class="cls-8" cx="253.87" cy="212.94" r="4.74"/></g></g><g><g><line class="cls-3" x1="449.58" y1="580.57" x2="351.37" y2="657.56"/><line class="cls-3" x1="402.29" y1="552.14" x2="331.75" y2="607.45"/><line class="cls-3" x1="339.66" y1="470.24" x2="267.12" y2="527.11"/><line class="cls-3" x1="319.02" y1="420.92" x2="224.15" y2="495.29"/><line class="cls-3" x1="282.28" y1="384.22" x2="197.29" y2="450.85"/><line class="cls-3" x1="225.71" y1="363.07" x2="190.23" y2="390.88"/><line class="cls-3" x1="200.87" y1="319.82" x2="154.17" y2="356.43"/><line class="cls-3" x1="197.34" y1="263.42" x2="102.47" y2="337.79"/><line class="cls-3" x1="168.88" y1="220.23" x2="65.77" y2="301.06"/><line class="cls-3" x1="128.79" y1="186.15" x2="44.46" y2="252.26"/><line class="cls-3" x1="63.02" y1="172.21" x2="42.48" y2="188.31"/><line class="cls-3" x1="46.87" y1="110.26" x2="-12.58" y2="156.86"/><line class="cls-3" x1="32.77" y1="55.8" x2="-62.09" y2="130.17"/></g><g><path class="cls-2" d="M360.12,680.2c-73.68-93.98,26.76-172.72-46.92-266.69-73.69-93.99-174.12-15.25-247.81-109.24C-8.29,210.27,92.14,131.53,18.46,37.54"/><path class="cls-2" d="M466.13,597.09c-73.68-93.98-174.11-15.24-247.79-109.21-73.69-93.99,26.75-172.73-46.94-266.72C97.72,127.16-2.72,205.9-76.41,111.91"/></g></g><g><g><line class="cls-3" x1="110.15" y1="645.85" x2="127.52" y2="638.85"/><line class="cls-3" x1="74.51" y1="660.22" x2="85.8" y2="655.67"/><line class="cls-3" x1="83.97" y1="674.63" x2="92.04" y2="663.08"/><line class="cls-3" x1="86.13" y1="624.26" x2="93.22" y2="639.35"/><line class="cls-3" x1="105.57" y1="662.44" x2="122.61" y2="685.95"/></g><g><circle class="cls-8" cx="98.27" cy="651.5" r="13.15"/><circle class="cls-8" cx="82.57" cy="615.85" r="9.12"/><circle class="cls-8" cx="79.29" cy="682.46" r="9.12"/><circle class="cls-8" cx="129.6" cy="695.42" r="11.77"/><circle class="cls-8" cx="131.69" cy="637.34" r="4.18"/><path class="cls-8" d="M74.96,662.44c0-3.14-2.55-5.69-5.69-5.69s-5.69,2.55-5.69,5.69,2.55,5.69,5.69,5.69,5.69-2.55,5.69-5.69Z"/></g></g><g><circle class="cls-8" cx="1041.84" cy="644.78" r="17.58" transform="translate(-165.51 436.23) rotate(-21.95)"/><g><ellipse class="cls-1" cx="1041.84" cy="644.78" rx="75.36" ry="39.28" transform="translate(-165.51 436.23) rotate(-21.95)"/><ellipse class="cls-1" cx="1041.84" cy="644.78" rx="39.28" ry="75.36" transform="translate(-165.51 436.23) rotate(-21.95)"/><ellipse class="cls-1" cx="1041.84" cy="644.78" rx="75.36" ry="39.28" transform="translate(40.65 1351.04) rotate(-66.95)"/><ellipse class="cls-1" cx="1041.84" cy="644.78" rx="39.28" ry="75.36" transform="translate(40.65 1351.04) rotate(-66.95)"/></g><g><path class="cls-8" d="M1007.12,584.04c-1.23-3.04-4.69-4.51-7.73-3.29-3.04,1.23-4.51,4.69-3.29,7.73,1.23,3.04,4.69,4.51,7.73,3.29,3.04-1.23,4.51-4.69,3.29-7.73Z"/><path class="cls-8" d="M1105.95,602.24c-1.23-3.04-4.69-4.51-7.73-3.29s-4.51,4.69-3.29,7.73c1.23,3.04,4.69,4.51,7.73,3.29,3.04-1.23,4.51-4.69,3.29-7.73Z"/><path class="cls-8" d="M1027.1,713.29c-1.23-3.04-4.69-4.51-7.73-3.29-3.04,1.23-4.51,4.69-3.29,7.73,1.23,3.04,4.69,4.51,7.73,3.29,3.04-1.23,4.51-4.69,3.29-7.73Z"/><path class="cls-8" d="M991.21,651.07c-1.23-3.04-4.69-4.51-7.73-3.29-3.04,1.23-4.51,4.69-3.29,7.73,1.23,3.04,4.69,4.51,7.73,3.29s4.51-4.69,3.29-7.73Z"/></g></g><g><g><line class="cls-7" x1="97.86" y1="484.29" x2="104.33" y2="465.14"/><line class="cls-7" x1="131.47" y1="445.51" x2="111.4" y2="455.7"/><line class="cls-7" x1="94.78" y1="433.12" x2="104.57" y2="453.39"/></g><g><circle class="cls-8" cx="106.32" cy="459.25" r="6.22"/><path class="cls-8" d="M130.63,439.9c-1.1,3.25,.65,6.78,3.9,7.88,3.25,1.1,6.78-.65,7.88-3.9,1.1-3.25-.65-6.78-3.9-7.88-3.25-1.1-6.78,.65-7.88,3.9Z"/><path class="cls-8" d="M86.93,425.15c-1.1,3.25,.65,6.78,3.9,7.88,3.25,1.1,6.78-.65,7.88-3.9s-.65-6.78-3.9-7.88-6.78,.65-7.88,3.9Z"/><path class="cls-8" d="M89.99,488.2c-1.1,3.25,.65,6.78,3.9,7.88s6.78-.65,7.88-3.9c1.1-3.25-.65-6.78-3.9-7.88s-6.78,.65-7.88,3.9Z"/></g></g><g><g><path class="cls-8" d="M1290.31,573.66c.51-2.92-1.43-5.7-4.35-6.22s-5.7,1.43-6.22,4.35c-.51,2.92,1.43,5.7,4.35,6.22,2.92,.51,5.7-1.43,6.22-4.35Z"/><path class="cls-8" d="M1296.23,562.74c.3-1.7-.83-3.31-2.53-3.61s-3.31,.83-3.61,2.53c-.3,1.7,.83,3.31,2.53,3.61,1.7,.3,3.31-.83,3.61-2.53Z"/><path class="cls-8" d="M1292.11,550.19c.21-1.16-.57-2.27-1.73-2.48s-2.27,.57-2.48,1.73,.57,2.27,1.73,2.48c1.16,.21,2.27-.57,2.48-1.73Z"/></g><g><g><polygon class="cls-7" points="1271.53 594.19 1262.82 643.59 1204.82 709.04 1263.04 719.3 1321.26 729.57 1289.15 648.24 1300.41 584.35 1271.53 594.19"/><polygon class="cls-5" points="1269.35 594.93 1302.59 583.64 1303.22 580.05 1269.98 591.39 1269.35 594.93"/></g><polygon class="cls-8" points="1314.4 723.97 1290.92 664.51 1255.58 658.28 1213.18 706.12 1314.4 723.97"/></g></g><g><path class="cls-4" d="M1172.27,483.6l-1.37,9.56c-1.95,13.62-14.74,23.1-28.56,21.17h0c-13.82-1.93-23.44-14.52-21.49-28.14l1.37-9.56"/><path class="cls-6" d="M1224.2,499.13l2.93-20.45c1.33-9.29-5.23-17.89-14.66-19.2h0c-9.43-1.31-18.15,5.15-19.49,14.44l-7.52,52.42c-1.72,11.96-12.95,20.29-25.1,18.6h0c-12.14-1.69-20.6-12.76-18.88-24.73l.84-5.88"/><ellipse class="cls-6" cx="1223.03" cy="507.31" rx="8.21" ry="8.09"/><ellipse class="cls-8" cx="1223.03" cy="507.31" rx="4.55" ry="4.48"/><path class="cls-6" d="M1141.89,437.41l-5.44-.76c-4.6-.64-8.85,2.51-9.5,7.04l-4.73,32.93"/><path class="cls-1" d="M1147.36,435.65l-2.99-.42c-1.18-.16-2.27,.64-2.43,1.8l-.11,.76c-.17,1.16,.65,2.23,1.83,2.4l2.99,.42c1.18,.16,2.27-.64,2.43-1.8l.11-.76c.17-1.16-.65-2.23-1.83-2.4Z"/><path class="cls-6" d="M1164.42,440.55l5.44,.76c4.6,.64,7.8,4.83,7.15,9.36l-4.73,32.93"/><path class="cls-1" d="M1159.65,437.36l2.99,.42c1.18,.16,2,1.24,1.83,2.4l-.11,.76c-.17,1.16-1.26,1.97-2.43,1.8l-2.99-.42c-1.18-.16-2-1.24-1.83-2.4l.11-.76c.17-1.16,1.26-1.97,2.43-1.8Z"/></g><g><path class="cls-8" d="M1188,307.9c-15.28,4.02-24.45,19.72-20.44,35s19.72,24.45,35,20.44c15.28-4.02,24.45-19.72,20.44-35-4.02-15.28-19.72-24.45-35-20.44Zm3.45,47.23c2.85-.15,5.74-.61,8.6-1.36,4.52-1.19,8.6-3.03,12.05-5.28-1.43,6.61-4.98,11.54-10.05,12.87-8.92,2.34-19.2-7.3-22.93-21.49-1.32-5.03-1.64-9.96-1.11-14.34,3.55-2.61,8.01-4.76,13.03-6.08,2.68-.71,5.4-1.14,8.06-1.29,.56-.03,1-.52,.96-1.08-.03-.56-.52-1-1.08-.96-2.8,.16-5.65,.61-8.47,1.35-4.52,1.19-8.6,3.03-12.05,5.28,1.43-6.61,4.98-11.54,10.05-12.87,8.92-2.34,19.2,7.3,22.93,21.49,1.32,5.03,1.64,9.96,1.11,14.34-3.55,2.61-8.01,4.76-13.03,6.08-2.73,.72-5.48,1.15-8.19,1.3-.57,.03-1,.51-.97,1.08,.03,.56,.51,1,1.08,.97Zm-9.05-2.72c-6.83-1.49-11.58-5.15-12.86-10.03-1.33-5.07,1.22-10.58,6.27-15.08-.27,4.11,.13,8.57,1.32,13.09,1.19,4.51,3.02,8.59,5.27,12.03Zm31.03-21.56c-1.19-4.51-3.02-8.59-5.27-12.03,6.83,1.49,11.58,5.15,12.86,10.03,1.33,5.07-1.22,10.58-6.27,15.08,.27-4.11-.13-8.57-1.32-13.09Zm3.63-10.52c-2.78-1.91-6.37-3.27-10.54-3.89-.02,0-.04,0-.06,0-2.57-3.28-5.53-5.79-8.64-7.31,7.72,.75,14.78,4.86,19.24,11.2Zm-37.01-6.53c-1.96,2.85-3.31,6.51-3.93,10.63-3.29,2.57-5.81,5.54-7.33,8.65,.75-7.74,4.89-14.83,11.26-19.29Zm-6.55,37.11c2.78,1.91,6.37,3.27,10.54,3.89,.02,0,.04,0,.06,0,2.57,3.28,5.53,5.79,8.64,7.31-7.72-.75-14.78-4.86-19.24-11.2Zm37.01,6.53c1.96-2.85,3.31-6.51,3.93-10.63,3.29-2.57,5.81-5.54,7.33-8.65-.75,7.74-4.89,14.83-11.26,19.29Z"/><path class="cls-8" d="M1191.58,342.76l-3.03-11.54c-.17-.65-.84-1.05-1.48-.88l-4.78,1.26c-.55,.14-.87,.7-.73,1.25s.7,.87,1.25,.73l3.97-1.04,1.05,3.99-2.37,.62c-.55,.14-.87,.7-.73,1.25s.7,.87,1.25,.73l2.37-.62,1.05,3.99-3.97,1.04c-.55,.14-.87,.7-.73,1.25,.14,.55,.7,.87,1.25,.73l4.78-1.26c.65-.17,1.03-.84,.86-1.5Z"/><path class="cls-8" d="M1194.71,343.21l4.26-1.12c.68-.18,1.09-.86,.91-1.51l-1.39-5.3c-.17-.65-.86-1.04-1.54-.87l-3.51,.92-1.12-4.27,3.93-1.03c.55-.14,.87-.7,.73-1.25s-.7-.87-1.25-.73l-4.68,1.23c-.68,.18-1.09,.86-.91,1.51l3.03,11.54c.17,.65,.86,1.04,1.54,.87Zm-.74-5.89l2.75-.72,.98,3.72-2.75,.72-.98-3.72Z"/><path class="cls-8" d="M1203.94,340.78l3.34-.88c1.09-.29,1.75-1.41,1.46-2.5l-2.62-9.96c-.29-1.09-1.41-1.75-2.5-1.46l-3.34,.88c-1.09,.29-1.75,1.41-1.46,2.5l2.62,9.96c.29,1.09,1.41,1.75,2.5,1.46Zm-3.14-11.94l3.34-.88,2.62,9.96-3.34,.88-2.62-9.96Z"/></g><g><path class="cls-8" d="M1136.63,239.72l-2.29-.77,.16-.47c1.44-4.27-.88-8.92-5.17-10.37l-37.36-12.61c-4.29-1.45-8.95,.85-10.39,5.12l-.16,.47-2.29-.77c-1.22-.41-2.55,.25-2.96,1.47l-2.67,7.91c-.41,1.22,.25,2.55,1.47,2.96l2.29,.77-.16,.47c-1.44,4.27,.88,8.92,5.17,10.37l10.56,3.56c.52,.18,1.1,.03,1.47-.37l1.15-1.23c1.94-2.08,4.93-2.84,7.62-1.93,2.69,.91,4.61,3.32,4.89,6.15l.16,1.67c.05,.55,.42,1.02,.95,1.19l10.56,3.56c4.29,1.45,8.95-.85,10.39-5.12l.16-.47,2.29,.77c1.22,.41,2.55-.25,2.96-1.47l2.67-7.91c.41-1.22-.25-2.55-1.47-2.96Zm-52.84-18.36c1.03-3.05,4.36-4.69,7.43-3.65l37.36,12.61c3.07,1.04,4.73,4.36,3.7,7.41l-.16,.47-1.73,5.11-15.73-5.31c-.38-.13-.81-.09-1.16,.1l-2.52,1.37-11.32-3.82-1.17-2.62c-.17-.37-.48-.65-.86-.78l-15.73-5.31,1.73-5.11,.16-.47Zm-8.08,9.07l2.67-7.91,2.29,.77-2.67,7.91-2.29-.77Zm52.09,20.57c-1.03,3.05-4.36,4.69-7.43,3.65l-9.99-3.37-.11-1.07c-.37-3.74-2.91-6.93-6.47-8.14s-7.52-.2-10.08,2.55l-.73,.79-9.99-3.37c-3.07-1.04-4.73-4.36-3.7-7.41l.16-.47,1.69-5,15.37,5.19,1.17,2.62c.17,.37,.48,.65,.86,.78l12.05,4.07c.38,.13,.8,.09,1.16-.1l2.52-1.37,15.37,5.19-1.69,5-.16,.47Zm5.41-1.16l-2.29-.77,2.67-7.91,2.29,.77-2.67,7.91Z"/><path class="cls-8" d="M1102.25,231.79l9.03,3.05c1.31,.44,2.73-.26,3.17-1.57l.62-1.83c.44-1.31-.26-2.73-1.57-3.17l-9.03-3.05c-1.31-.44-2.73,.26-3.17,1.57l-.62,1.83c-.44,1.31,.26,2.73,1.57,3.17Zm1.26-4.26c.03-.09,.13-.14,.22-.11l9.03,3.05c.09,.03,.14,.13,.11,.22l-.62,1.83c-.03,.09-.13,.14-.22,.11l-9.03-3.05c-.09-.03-.14-.13-.11-.22l.62-1.83Z"/></g></g><g id="_圖層_3"><path class="cls-10" d="M966.3,24.31c18.48,8.08,39.75,14.68,50.27,30.27,5.46,8.09,7.23,17.61,10.06,26.68,10.92,34.97,41.23,68.53,83.15,76.64,16.61,3.21,33.87,3.45,50.34,7.16,43.45,9.78,76.03,42.83,93.33,79.14,12.98,27.22,19.13,57.16,37.06,82.12,10.69,14.89,25.08,27.13,39.64,39.06,3.44,2.82,42.76,21.27,42.76,15.61V-2.66h-439.99c5.69,11.72,19.69,20.99,33.36,26.96Z"/></g></svg>