<?xml version="1.0" encoding="UTF-8"?><svg id="bg" xmlns="http://www.w3.org/2000/svg" xmlns:xlink="http://www.w3.org/1999/xlink" viewBox="0 0 348.54 253.19"><defs><style>.cls-1{fill:url(#_未命名漸層_470-6);}.cls-2{fill:url(#_未命名漸層_470-4);}.cls-3{fill:url(#_未命名漸層_470-3);}.cls-4{fill:url(#_未命名漸層_470-2);}.cls-5{fill:url(#_未命名漸層_470-5);}.cls-6{fill:url(#_未命名漸層_470);}</style><linearGradient id="_未命名漸層_470" x1="129.62" y1="-10.64" x2="129.62" y2="82.16" gradientUnits="userSpaceOnUse"><stop offset=".07" stop-color="#cfc52d"/><stop offset=".53" stop-color="#000"/></linearGradient><linearGradient id="_未命名漸層_470-2" x1="218.7" y1="-10.64" x2="218.7" y2="82.16" xlink:href="#_未命名漸層_470"/><linearGradient id="_未命名漸層_470-3" x1="42.92" y1="97.1" x2="42.92" y2="175.92" xlink:href="#_未命名漸層_470"/><linearGradient id="_未命名漸層_470-4" x1="131.7" y1="97.1" x2="131.7" y2="175.92" xlink:href="#_未命名漸層_470"/><linearGradient id="_未命名漸層_470-5" x1="220.56" y1="97.1" x2="220.56" y2="175.92" xlink:href="#_未命名漸層_470"/><linearGradient id="_未命名漸層_470-6" x1="307.69" y1="97.1" x2="307.69" y2="175.92" xlink:href="#_未命名漸層_470"/></defs><g><path class="cls-6" d="M172.36,70.96h-14.09v13.55h-12.23v-13.55h-15.24v-10.99h15.24v-6.47h-5.94c-.89,2.21-1.95,4.25-3.01,5.94-1.68-1.24-5.05-2.92-7.53-4.08v17.54c0,4.7-.8,7.88-3.72,9.75-3.01,1.77-6.64,2.04-11.69,2.04-.36-3.01-2.04-7.97-3.54-10.81,2.92,.18,6.11,.18,7.18,.18,.97,0,1.33-.35,1.33-1.42v-11.07h-15.68c-.97,8.42-2.92,17.1-7.09,23.39-1.86-1.68-6.47-4.61-8.86-5.67,6.02-9.12,6.47-22.33,6.47-32.34v-13.73c-2.21-1.95-5.14-4.43-7.09-5.67,5.94-6.38,10.45-16.66,12.76-27.02l11.34,2.48c-.53,2.04-1.06,4.08-1.77,6.02h6.64l1.59-.44,7.26,4.43c-1.15,3.28-2.83,7-4.52,10.54h9.39v4.52c6.03-3.01,8.33-7.26,9.3-12.49h-8.77V5.14h40.04s-.09,2.57-.18,3.9c-.35,13.91-1.06,20.29-3.01,22.77-1.59,2.04-3.46,2.83-5.76,3.28-1.06,.18-2.57,.27-4.16,.35h1.24v7.35h12.22v10.72h-12.22v6.47h14.09v10.99ZM105.65,18.6c-.8,1.68-1.51,3.37-2.3,4.96h6.2c.62-1.51,1.24-3.28,1.77-4.96h-5.67Zm-1.51,28.44c0,1.68,0,3.46-.09,5.23h3.37v-5.58h-3.28v.35Zm0-9.3h3.28v-4.87h-3.28v4.87Zm11.61,0h3.37v-4.87h-3.37v4.87Zm3.37,14.53v-5.58h-3.37v5.58h3.37Zm10.45-.53c2.04-3.99,3.54-8.95,4.43-13.91-.89-1.95-2.57-4.7-4.43-6.73v20.64Zm16.48-8.95v-7.35h6.29c-.18-3.19-1.24-7.53-2.83-10.28,2.39,.27,4.25,.35,5.4,.35,.97,0,1.68-.18,2.3-.97,.62-.8,1.06-3.28,1.33-8.95h-8.15c-1.33,8.95-4.52,15.95-13.38,20.91l7.62,1.51c-.27,1.59-.62,3.19-.97,4.78h2.39Z"/><path class="cls-4" d="M212.23,74.6c4.87-2.3,9.21-5.32,11.87-8.5l10.9,3.99c-4.7,6.02-12.49,11.69-19.14,15.06-2.13-2.3-6.38-6.38-8.95-8.33,1.68-.62,3.37-1.24,4.96-2.04-10.9,2.75-22.41,5.4-31.45,7.44l-2.57-11.34c3.54-.53,7.97-1.33,12.85-2.13v-19.76h-11.34v-10.81h11.34v-4.7h-6.02v-4.61c-1.51,1.42-3.1,2.75-4.61,3.9-.53-2.75-2.83-9.75-4.34-12.85,6.82-4.61,14.09-12.14,18.25-19.93l9.39,4.16c-.53,1.06-1.15,2.13-1.68,3.1,5.67,3.01,11.07,6.56,14.26,9.3l-5.05,10.28c-.71-.71-1.51-1.33-2.39-2.13v8.77h-7v4.7h10.28v10.81h-10.28v12.85c.89-3.72,1.68-8.06,2.04-11.43l9.21,2.21c-1.51,4.52-2.83,9.21-3.99,12.76l2.66-.53,.8,9.75Zm-24.81-23.21c1.33,4.61,2.66,10.63,3.19,14.53l-8.5,2.48c-.27-4.08-1.51-10.19-2.66-14.88l7.97-2.13Zm18.69-28.53c-3.01-2.3-6.64-4.7-10.28-6.73-1.68,2.3-3.46,4.61-5.4,6.73h15.68Zm-4.61,43.85l3.9-.71-3.9-1.15v1.86Zm16.04-45.8c-.62-4.16-2.48-10.1-4.52-14.79l10.19-2.83c2.3,4.96,4.7,11.34,5.4,15.68l-6.64,1.95h7.62V.62h11.34V20.91h6.73c-2.13-1.15-4.34-2.21-5.94-2.92,2.04-3.81,4.16-9.83,5.23-14.88l10.81,2.92c-1.24,4.96-3.28,10.63-5.14,14.88h2.57v44.83h-40.58V20.91h2.92Zm8.33,12.23h17.45v-2.75h-17.45v2.75Zm0,11.61h17.45v-2.83h-17.45v2.83Zm0,11.52h17.45v-2.75h-17.45v2.75Zm18.78,9.75c6.02,4.43,13.11,10.37,17.01,14.26l-12.05,4.16c-2.92-3.63-8.59-9.3-13.64-13.38l8.68-5.05Z"/></g><g><path class="cls-3" d="M55.64,150.47c7.44,9.04,18.78,17.54,30.21,22.5-3.01,2.57-7.26,7.8-9.39,11.25-9.66-5.23-18.87-13.02-26.49-22.06v25.16h-13.73v-24.81c-7.71,8.77-17.01,16.39-26.75,21.53-2.13-3.28-6.47-8.5-9.48-11.16,11.52-4.96,22.95-13.38,30.48-22.41H3.28v-12.76H36.23v-9.12H10.1v-12.76h26.13v-12.67h13.73v12.67h26.75v12.76h-26.75v9.12h33.49v12.76h-27.82Z"/><path class="cls-2" d="M163.01,156.49c-2.3-2.3-6.2-5.67-10.19-8.95-1.51,2.3-3.19,4.34-4.87,6.02-1.59-1.24-4.43-3.1-7.09-4.61,7.8,9.83,20.11,18.6,33.4,23.39-3.19,2.75-7.44,8.24-9.57,11.87-9.92-4.61-18.96-11.69-26.49-20.11v23.21h-13.64v-22.41c-7.44,8.24-16.39,15.06-26.31,19.58-2.04-3.28-6.2-8.5-9.12-11.16,14.53-5.49,27.91-15.86,35.44-27.38v-19.84h-15.77l10.63,2.04c-.8,3.1-1.77,6.11-2.92,9.04,2.92,2.39,5.94,4.96,7.71,6.73l-8.5,9.12c-1.15-1.42-2.83-3.1-4.7-4.87-2.83,4.34-6.02,8.15-9.57,11.16-2.13-2.3-7.09-6.56-9.92-8.42,7.62-5.4,12.93-14.53,15.33-24.81h-13.55v-12.58h31.27v-10.37h13.64v10.37h32.51v12.58h-20.2l10.54,1.95c-.71,3.1-1.68,6.11-2.83,9.04,4.78,3.54,10.45,7.71,13.64,10.54l-8.86,8.86Zm-24.81-30.39v19.22l.18,.27c4.96-4.78,8.42-11.96,10.1-19.49h-10.28Z"/><path class="cls-5" d="M226.45,103.16c-.09,4.08-.27,9.12-.71,14.79,1.33,12.58,6.91,43.85,37.56,57.5-3.99,3.1-7.62,7.53-9.48,11.16-18.6-8.95-28.53-24.54-33.93-38.98-5.05,14.53-14.35,29.15-31.27,39.6-2.3-3.46-6.47-7.62-10.81-10.54,35.61-19.76,33.31-57.58,33.75-73.53h14.88Z"/><path class="cls-1" d="M348.54,133.64h-17.98v37.47c0,7.62-1.51,11.16-6.02,13.2-4.52,2.13-11.07,2.48-19.93,2.48-.53-3.9-2.57-10.01-4.43-13.82,5.14,.35,11.61,.35,13.47,.35,1.86-.09,2.57-.62,2.57-2.3v-33.4c-9.48,16.21-23.74,31.8-38.89,41.02-2.39-3.72-6.73-8.68-10.45-11.69,14.09-7,27.02-19.67,35.88-33.31h-32.78v-13.29h46.25v-17.1h14.35v17.1h17.98v13.29Z"/></g><g><path d="M38.79,251.89c.93-1.46,1.64-3.81,1.98-5.67l1.92,.71c-.34,1.92-.96,4.31-1.86,5.8l-2.05-.84Zm14.33-6.73h-13.67v-2.26h5.55v-2.02h-4.99v-2.26h4.99v-1.74h-4.9v-11.16h12.5v11.16h-5.05v1.74h5.15v2.26h-5.15v2.02h5.58v2.26Zm-10.82-10.29h3.01v-7.13h-3.01v7.13Zm1.55-6.05c.47,1.43,.9,3.32,.99,4.5l-1.39,.43c-.06-1.24-.43-3.13-.9-4.59l1.3-.34Zm1.58,17.92c.34,1.67,.5,3.91,.46,5.33l-1.92,.25c.09-1.46-.06-3.69-.37-5.36l1.83-.22Zm3.07-.16c.59,1.58,1.18,3.63,1.33,4.96l-1.86,.43c-.12-1.4-.65-3.47-1.24-5.05l1.77-.34Zm1.83-18.85h-3.16v7.13h3.16v-7.13Zm-2.91,5.71c.43-1.27,1.02-3.35,1.27-4.71l1.58,.59c-.59,1.52-1.18,3.41-1.71,4.56l-1.15-.43Zm4.22,12.77c.93,1.49,1.77,3.5,2.11,4.84l-1.89,.71c-.31-1.33-1.12-3.38-2.02-4.9l1.8-.65Zm9.52-12.31v5.33h5.15v13.74h-2.73v-1.21h-6.88v1.33h-2.6v-13.86h4.28v-14.54h2.79v6.54h6.29v2.67h-6.29Zm2.42,7.94h-6.88v7.29h6.88v-7.29Z"/><path d="M90.91,243.02c-.34,6.01-1.77,8.81-10.08,10.14-.25-.74-.96-1.86-1.49-2.45,7.38-.99,8.34-2.82,8.59-7.69h2.98Zm16.22-15.78v2.39h-27.16v-2.39h12.99c-.28-.71-.68-1.49-1.05-2.14l2.88-.59c.56,.81,1.15,1.92,1.43,2.73h10.91Zm-26.94,12.03h26.6v5.8h-2.67v-3.53h-21.36v3.57h-2.57v-5.83Zm22.79-8.06v6.45h-18.76v-6.45h18.76Zm-3.04,1.98h-12.87v2.48h12.87v-2.48Zm3.38,17.08c.84,0,1.02-.5,1.15-3.22,.59,.47,1.83,.9,2.64,1.08-.28,3.69-1.05,4.68-3.5,4.68h-3.84c-3.1,0-3.88-.81-3.88-3.47v-6.33h3.13v6.29c0,.84,.19,.96,1.18,.96h3.13Z"/><path d="M127.21,225.44c-.56,1.98-1.27,4-2.05,5.92v21.73h-2.54v-16.53c-.62,1.05-1.24,2.02-1.92,2.85-.19-.68-.9-2.29-1.36-3.01,2.26-2.88,4.12-7.25,5.24-11.69l2.64,.71Zm6.82,10.63c-.4,4.46-1.15,8.03-2.29,10.85,2.64,2.7,6.17,3.26,10.08,3.29,1.12,0,4.96,0,6.33-.03-.4,.59-.81,1.77-.93,2.48h-5.49c-4.4,0-8.22-.65-11.13-3.47-.96,1.64-2.08,2.95-3.38,3.94-.43-.56-1.36-1.46-1.92-1.8,1.46-.99,2.67-2.36,3.63-4.19-1.02-1.55-1.89-3.44-2.57-5.89l2.05-.71c.43,1.61,.96,2.95,1.61,4.06,.65-1.86,1.12-4.03,1.4-6.57h-3.13c-.46,.28-.9,.59-.9,.84-.22-.5-.81-1.55-1.18-2.05,.59-.16,1.36-1.02,1.95-1.95,.47-.74,1.67-3.04,2.67-5.61h-3.66v-2.48h4.62l.81-.34,1.67,1.12c-1.15,2.98-2.54,5.89-3.94,8.22h1.74l.46-.03,1.52,.34Zm4.62-6.88h-3.66v-2.08h3.66v-2.29h2.39v2.29h4.99v4.06h2.08v2.17h-2.08v4.22h-4.99v1.92h5.33v2.23h-5.33v2.02h6.23v2.26h-6.23v3.35h-2.39v-3.35h-4.74v-2.26h4.74v-2.02h-4v-2.23h4v-1.92h-3.66v-2.11h3.66v-2.11h-4.96v-2.17h4.96v-1.98Zm2.39,0v1.98h2.76v-1.98h-2.76Zm2.76,4.16h-2.76v2.11h2.76v-2.11Z"/><path d="M177.52,245.06c.59,.25,1.18,.47,1.8,.71,1.61-.96,3.75-2.54,4.99-3.69l2.14,1.71c-1.49,1.05-3.16,2.14-4.68,3.01,2.33,.99,4.56,2.05,6.01,2.85l-1.3,2.05c-2.02-1.18-5.74-2.95-8.96-4.31v2.73c0,1.58-.4,2.23-1.49,2.61-1.12,.4-2.79,.43-5.4,.43-.12-.71-.5-1.77-.9-2.42,1.74,.09,3.63,.06,4.12,.03,.56,0,.74-.19,.74-.68v-2.73c-3.07,1.4-6.26,2.82-8.77,3.91l-1.12-2.36c2.45-.87,6.23-2.36,9.89-3.81v-3.13h-6.67c1.46,.84,3.38,2.11,4.37,2.88l-1.64,1.8c-.96-.9-2.95-2.23-4.43-3.16l1.46-1.52h-.87v-2.05h7.78v-2.11h-8.87v-2.11h8.87v-2.02h-7.5v-2.02h7.5v-1.89h-9.55v6.45c0,4.9-.43,12.15-3.1,16.84-.5-.5-1.71-1.3-2.33-1.58,2.45-4.37,2.67-10.7,2.67-15.26v-8.99h11.94c-.4-.74-.81-1.49-1.18-2.14l2.85-.71c.59,.84,1.21,1.95,1.67,2.85h10.36v2.54h-10.42v1.89h7.88v3.81h2.88v2.48h-2.88v4h-7.88v3.1Zm0-9.36h5.15v-2.02h-5.15v2.02Zm0,4.22h5.15v-2.11h-5.15v2.11Z"/><path d="M216.71,236.23c2.11,6.45,6.02,11.69,11.88,14.14-.71,.62-1.67,1.83-2.14,2.7-5.8-2.7-9.55-7.72-11.97-14.29-1.58,5.61-4.93,10.98-11.97,14.29-.46-.78-1.4-1.8-2.2-2.42,7.38-3.22,10.39-8.81,11.63-14.42h-11.01v-2.98h11.54c.37-3.1,.34-6.08,.37-8.56h3.13c-.03,2.51-.06,5.49-.43,8.56h12.5v2.98h-11.32Z"/><path d="M248.95,248.35c1.92,.96,4.43,1.21,7.66,1.21,1.77,0,10.29,0,12.53-.09-.47,.65-.99,1.98-1.18,2.85h-11.38c-6.39,0-10.2-.96-12.62-5.27-.4,2.14-1.05,4.22-2.14,6.02-.37-.59-1.3-1.43-1.83-1.71,2.05-3.6,2.23-8.65,2.11-12.74l2.39,.12c.03,1.15,.03,2.36-.03,3.57,.5,1.67,1.12,2.98,1.92,4v-9.95h-5.58v-2.54h4.87v-3.13h-4.09v-2.54h4.09v-3.47h2.57v3.47h3.81v2.11c1.67-1.46,3.13-3.57,3.97-5.77l2.48,.62c-.19,.43-.4,.87-.62,1.3h10.17s-.03,.59-.03,.93c-.31,5.43-.59,7.44-1.27,8.25-.46,.53-.99,.68-1.77,.74-.59,.06-1.74,.09-2.91,0-.03-.53-.25-1.33-.53-1.83,1.02,.09,1.92,.12,2.33,.12,.37,0,.62-.06,.81-.28,.37-.43,.65-2.02,.87-5.92h-8.81c-.28,.43-.56,.87-.87,1.27h.25v2.33h1.92v-2.82h1.92v2.82h1.89v-2.33h1.98v4h-4.03c-.31,.96-1.02,1.8-2.48,2.48l.96,.25c-.19,.43-.4,.9-.65,1.33h10.57s-.03,.65-.06,.99c-.28,5.89-.59,8.06-1.33,8.9-.47,.53-1.02,.74-1.77,.78-.62,.09-1.8,.06-3.01,.03-.03-.56-.25-1.43-.53-1.92,1.02,.09,1.95,.09,2.36,.09,.4,.03,.65-.03,.84-.28,.4-.53,.71-2.23,.96-6.57h-9.21c-.34,.5-.68,.96-1.02,1.4h.4v2.42h1.95v-2.98h2.08v2.98h1.95v-2.42h2.02v4.19h-4.25c-.56,1.46-2.05,2.79-5.61,3.63-.22-.46-.78-1.12-1.24-1.52,2.57-.46,3.88-1.27,4.5-2.11h-3.29v-2.54l-.31,.28c-.28-.25-.74-.59-1.21-.9v.25h-3.47v5.92Zm0-12v3.57h3.47v.84c1.12-1.08,2.08-2.45,2.82-3.84-.37,.09-.78,.16-1.18,.25-.19-.43-.65-1.08-1.05-1.43,2.79-.43,4.12-1.21,4.68-2.05h-3.47v-2.08l-.34,.34c-.43-.34-1.24-.9-1.86-1.27h-3.78v3.13h4.53v2.54h-3.81Z"/><path d="M287.01,231.51c-.53,2.23-2.33,3.54-4.84,4.25-.22-.43-.71-1.3-1.12-1.71,1.92-.4,3.32-1.18,3.78-2.54h-3.53v-1.92h5.52v-1.43h-4.4v-1.83h4.4v-1.67h2.64v1.67h4.46v1.83h-4.46v1.43h5.67v1.92h-3.84v.9c0,.59,.03,.81,.46,.81h1.37c.34,0,1.05-.03,1.43-.16,.03,.56,.06,1.15,.16,1.71-.34,.12-.99,.16-1.55,.16h-1.95c-1.77,0-2.11-.81-2.11-2.54v-.87h-2.08Zm19.53-3.32c-.03,6.67-.03,11.81,.99,11.81,.4,.03,.53-1.58,.56-3.69,.5,.62,1.12,1.24,1.64,1.61-.22,3.22-.65,4.56-2.42,4.56-2.95,0-3.26-4.96-3.32-11.97h-2.7c-.12,1.55-.34,3.01-.62,4.28,1.21,.71,2.33,1.46,3.07,2.02l-1.3,2.05c-.62-.46-1.52-1.12-2.51-1.8-.77,2.02-2.05,3.6-3.94,4.84-.31-.56-.96-1.36-1.49-1.8l-.03,1.05c-4.77,.37-9.74,.71-13.24,.96l-.16-2.11c1.58-.06,3.57-.19,5.74-.31v-1.8h-4.43v-1.83h4.43v-1.58h2.64v1.58h4.56v1.83h-4.56v1.64c1.67-.12,3.35-.25,5.05-.37v.84c1.61-1.12,2.7-2.51,3.32-4.28-.9-.56-1.83-1.15-2.64-1.64l1.24-1.8c.65,.37,1.3,.78,2.05,1.21,.19-.93,.31-1.92,.4-2.98h-3.07v-2.33h3.19c.06-1.08,.06-2.29,.09-3.53h2.45c-.03,1.24-.06,2.42-.09,3.53h5.08Zm.06,15.63s-.06,.81-.12,1.15c-.5,4.4-.99,6.36-1.86,7.19-.65,.62-1.36,.84-2.39,.9-.9,.06-2.57,.06-4.37-.03-.06-.78-.34-1.86-.84-2.57,1.67,.15,3.38,.19,4.03,.19,.59,0,.93-.03,1.21-.28,.5-.4,.84-1.64,1.15-4.28h-8.09c-1.43,3.72-4.62,5.98-12.62,7.1-.22-.71-.84-1.8-1.3-2.36,6.63-.78,9.49-2.26,10.85-4.74h-9.12v-2.26h9.92c.12-.56,.22-1.15,.31-1.77h2.91c-.09,.62-.19,1.21-.31,1.77h10.64Z"/></g></svg>